HIERARCHY
ROOT reference
{
  OFFSET 0 0 0
  CHANNELS 6 Xposition Yposition Zposition Zrotation Xrotation Yrotation
  JOINT Hips
  {
    OFFSET 350.331 86.7696 215.823
    CHANNELS 3 Zrotation Xrotation Yrotation
    JOINT RightUpLeg
    {
      OFFSET -9.29271 -1.56052 -0.0234997
      CHANNELS 3 Zrotation Xrotation Yrotation
      JOINT RightLeg
      {
        OFFSET -0.0199852 -41.8973 0.0465042
        CHANNELS 3 Zrotation Xrotation Yrotation
        JOINT RightFoot
        {
          OFFSET -0.344404 -43.5008 0.46033
          CHANNELS 3 Zrotation Xrotation Yrotation
          End Site
          {
            OFFSET 0 -7.69 17.5
          }
        }
      }
    }
    JOINT LeftUpLeg
    {
      OFFSET 9.27671 -1.61046 0.00923455
      CHANNELS 3 Zrotation Xrotation Yrotation
      JOINT LeftLeg
      {
        OFFSET 0.0572944 -41.8832 0.025786
        CHANNELS 3 Zrotation Xrotation Yrotation
        JOINT LeftFoot
        {
          OFFSET 0.630082 -40.4663 0.064708
          CHANNELS 3 Zrotation Xrotation Yrotation
          End Site
          {
            OFFSET 0 -7.69 17.5
          }
        }
      }
    }
    JOINT Spine
    {
      OFFSET 0.0336257 14.3009 0.0467062
      CHANNELS 3 Zrotation Xrotation Yrotation
      JOINT Spine1
      {
        OFFSET 0.0295985 9.72711 0.0239471
        CHANNELS 3 Zrotation Xrotation Yrotation
        JOINT Spine2
        {
          OFFSET 0.0515174 10.1206 0.00128176
          CHANNELS 3 Zrotation Xrotation Yrotation
          JOINT Spine3
          {
            OFFSET 0.0546141 9.71668 0.0122483
            CHANNELS 3 Zrotation Xrotation Yrotation
            JOINT Neck
            {
              OFFSET 0.0872189 10.3831 0.0511468
              CHANNELS 3 Zrotation Xrotation Yrotation
              JOINT Head
              {
                OFFSET 0.0544 9.47189 0.0313815
                CHANNELS 3 Zrotation Xrotation Yrotation
                End Site
                {
                  OFFSET 0 15.95 0
                }
              }
            }
            JOINT RightShoulder
            {
              OFFSET -3.15364 6.93551 0.0260198
              CHANNELS 3 Zrotation Xrotation Yrotation
              JOINT RightArm
              {
                OFFSET -12.7567 0.0626665 0.0664987
                CHANNELS 3 Zrotation Xrotation Yrotation
                JOINT RightForeArm
                {
                  OFFSET -26.5087 -0.073346 0.274032
                  CHANNELS 3 Zrotation Xrotation Yrotation
                  JOINT RightHand
                  {
                    OFFSET -26.0005 -0.196673 0.105827
                    CHANNELS 3 Zrotation Xrotation Yrotation
                    JOINT RightHandThumb1
                    {
                      OFFSET -2.48905 0.190105 3.12053
                      CHANNELS 3 Zrotation Xrotation Yrotation
                      JOINT RightHandThumb2
                      {
                        OFFSET -3.68274 0 0
                        CHANNELS 3 Zrotation Xrotation Yrotation
                        JOINT RightHandThumb3
                        {
                          OFFSET -2.55832 0 0
                          CHANNELS 3 Zrotation Xrotation Yrotation
                          End Site
                          {
                            OFFSET -2.194 0 0
                          }
                        }
                      }
                    }
                    JOINT RightInHandIndex
                    {
                      OFFSET -3.22368 0.508421 1.97842
                      CHANNELS 3 Zrotation Xrotation Yrotation
                      JOINT RightHandIndex1
                      {
                        OFFSET -5.21684 -0.091368 0.999158
                        CHANNELS 3 Zrotation Xrotation Yrotation
                        JOINT RightHandIndex2
                        {
                          OFFSET -3.61937 0 0
                          CHANNELS 3 Zrotation Xrotation Yrotation
                          JOINT RightHandIndex3
                          {
                            OFFSET -2.0521 0 0
                            CHANNELS 3 Zrotation Xrotation Yrotation
                            End Site
                            {
                              OFFSET -1.805 0 0
                            }
                          }
                        }
                      }
                    }
                    JOINT RightInHandMiddle
                    {
                      OFFSET -3.38211 0.517263 0.756737
                      CHANNELS 3 Zrotation Xrotation Yrotation
                      JOINT RightHandMiddle1
                      {
                        OFFSET -5.17411 -0.084 0.313895
                        CHANNELS 3 Zrotation Xrotation Yrotation
                        JOINT RightHandMiddle2
                        {
                          OFFSET -3.94947 0 0
                          CHANNELS 3 Zrotation Xrotation Yrotation
                          JOINT RightHandMiddle3
                          {
                            OFFSET -2.47579 0 0
                            CHANNELS 3 Zrotation Xrotation Yrotation
                            End Site
                            {
                              OFFSET -1.975 0 0
                            }
                          }
                        }
                      }
                    }
                    JOINT RightInHandRing
                    {
                      OFFSET -3.36516 0.537895 -0.128947
                      CHANNELS 3 Zrotation Xrotation Yrotation
                      JOINT RightHandRing1
                      {
                        OFFSET -4.63474 -0.022105 -0.478947
                        CHANNELS 3 Zrotation Xrotation Yrotation
                        JOINT RightHandRing2
                        {
                          OFFSET -3.44238 0 0
                          CHANNELS 3 Zrotation Xrotation Yrotation
                          JOINT RightHandRing3
                          {
                            OFFSET -2.3881 0 0
                            CHANNELS 3 Zrotation Xrotation Yrotation
                            End Site
                            {
                              OFFSET -1.857 0 0
                            }
                          }
                        }
                      }
                    }
                    JOINT RightInHandPinky
                    {
                      OFFSET -3.16105 0.469368 -1.20179
                      CHANNELS 3 Zrotation Xrotation Yrotation
                      JOINT RightHandPinky1
                      {
                        OFFSET -4.14105 -0.022105 -1.09053
                        CHANNELS 3 Zrotation Xrotation Yrotation
                        JOINT RightHandPinky2
                        {
                          OFFSET -2.75653 0 0
                          CHANNELS 3 Zrotation Xrotation Yrotation
                          JOINT RightHandPinky3
                          {
                            OFFSET -1.74189 0 0
                            CHANNELS 3 Zrotation Xrotation Yrotation
                            End Site
                            {
                              OFFSET -1.645 0 0
                            }
                          }
                        }
                      }
                    }
                  }
                }
              }
            }
            JOINT LeftShoulder
            {
              OFFSET 3.27252 6.91581 -0.0198585
              CHANNELS 3 Zrotation Xrotation Yrotation
              JOINT LeftArm
              {
                OFFSET 12.8319 -0.0466028 -0.0574599
                CHANNELS 3 Zrotation Xrotation Yrotation
                JOINT LeftForeArm
                {
                  OFFSET 26.4942 -0.039105 -0.0936
                  CHANNELS 3 Zrotation Xrotation Yrotation
                  JOINT LeftHand
                  {
                    OFFSET 26.0008 0.022674 -0.016655
                    CHANNELS 3 Zrotation Xrotation Yrotation
                    JOINT LeftHandThumb1
                    {
                      OFFSET 2.48905 0.190105 3.12053
                      CHANNELS 3 Zrotation Xrotation Yrotation
                      JOINT LeftHandThumb2
                      {
                        OFFSET 3.68274 0 0
                        CHANNELS 3 Zrotation Xrotation Yrotation
                        JOINT LeftHandThumb3
                        {
                          OFFSET 2.55832 0 0
                          CHANNELS 3 Zrotation Xrotation Yrotation
                          End Site
                          {
                            OFFSET 2.194 0 0
                          }
                        }
                      }
                    }
                    JOINT LeftInHandIndex
                    {
                      OFFSET 3.22368 0.508421 1.97842
                      CHANNELS 3 Zrotation Xrotation Yrotation
                      JOINT LeftHandIndex1
                      {
                        OFFSET 5.21684 -0.091368 0.999158
                        CHANNELS 3 Zrotation Xrotation Yrotation
                        JOINT LeftHandIndex2
                        {
                          OFFSET 3.61937 0 0
                          CHANNELS 3 Zrotation Xrotation Yrotation
                          JOINT LeftHandIndex3
                          {
                            OFFSET 2.0521 0 0
                            CHANNELS 3 Zrotation Xrotation Yrotation
                            End Site
                            {
                              OFFSET 1.805 0 0
                            }
                          }
                        }
                      }
                    }
                    JOINT LeftInHandMiddle
                    {
                      OFFSET 3.38211 0.517263 0.756737
                      CHANNELS 3 Zrotation Xrotation Yrotation
                      JOINT LeftHandMiddle1
                      {
                        OFFSET 5.17411 -0.084 0.313895
                        CHANNELS 3 Zrotation Xrotation Yrotation
                        JOINT LeftHandMiddle2
                        {
                          OFFSET 3.94947 0 0
                          CHANNELS 3 Zrotation Xrotation Yrotation
                          JOINT LeftHandMiddle3
                          {
                            OFFSET 2.47579 0 0
                            CHANNELS 3 Zrotation Xrotation Yrotation
                            End Site
                            {
                              OFFSET 1.975 0 0
                            }
                          }
                        }
                      }
                    }
                    JOINT LeftInHandRing
                    {
                      OFFSET 3.36516 0.537895 -0.128947
                      CHANNELS 3 Zrotation Xrotation Yrotation
                      JOINT LeftHandRing1
                      {
                        OFFSET 4.63474 -0.022105 -0.478947
                        CHANNELS 3 Zrotation Xrotation Yrotation
                        JOINT LeftHandRing2
                        {
                          OFFSET 3.44238 0 0
                          CHANNELS 3 Zrotation Xrotation Yrotation
                          JOINT LeftHandRing3
                          {
                            OFFSET 2.3881 0 0
                            CHANNELS 3 Zrotation Xrotation Yrotation
                            End Site
                            {
                              OFFSET 1.857 0 0
                            }
                          }
                        }
                      }
                    }
                    JOINT LeftInHandPinky
                    {
                      OFFSET 3.16105 0.469368 -1.20179
                      CHANNELS 3 Zrotation Xrotation Yrotation
                      JOINT LeftHandPinky1
                      {
                        OFFSET 4.14105 -0.022105 -1.09053
                        CHANNELS 3 Zrotation Xrotation Yrotation
                        JOINT LeftHandPinky2
                        {
                          OFFSET 2.75653 0 0
                          CHANNELS 3 Zrotation Xrotation Yrotation
                          JOINT LeftHandPinky3
                          {
                            OFFSET 1.74189 0 0
                            CHANNELS 3 Zrotation Xrotation Yrotation
                            End Site
                            {
                              OFFSET 1.645 0 0
                            }
                          }
                        }
                      }
                    }
                  }
                }
              }
            }
          }
        }
      }
    }
  }
}
MOTION
Frames: 2
Frame Time: 0.00833333
1.500000000000000000e+02 0.000000000000000000e+00 0.000000000000000000e+00 0.000000000000000000e+00 0.000000000000000000e+00 -0.000000000000000000e+00 -3.648208814995184193e-03 -9.130840688650461944e-05 4.630287263629423271e-03 -1.566843193982682403e-02 8.167522479166638635e-03 -9.734587378086016762e-03 2.288609967323548561e-03 1.424379728785728043e-02 -6.825625283378593255e-03 9.316655531279940256e-03 -9.027387214141617197e-03 7.191702364175094064e-03 -1.328809524892092184e-02 -3.229427476542533725e-03 -6.414441907655893046e-03 2.196344983654464553e-02 -1.042146476604841922e-02 -2.194544487691896598e-02 -4.814604410243430478e-03 1.069685415825384275e-02 1.070394448195364188e-02 -6.555843807833009254e-03 7.871140626200761811e-03 7.899721250682383011e-03 -2.343877353039021047e-03 2.489016350613425591e-03 1.622672262334899163e-03 -3.619669875859448174e-03 3.945480895327672585e-03 2.251125592650896762e-03 6.213384093751125913e-05 5.258514655284705940e-05 -1.855333616144034473e-04 3.545438894324913183e-05 1.195225888328684594e-05 -5.431657877479400745e-05 6.089441415212865083e-03 -9.250143080177641169e-03 -1.105645423682594976e-02 -3.790805098911441406e-02 -5.380144777168303222e-02 -1.201935387673983089e-03 1.731080123723426900e-01 -9.002657748711262453e-02 -1.709693074732895543e-02 -6.887462199866208890e-01 1.081295288800959042e+00 -8.351649538159476860e-01 4.841040179856151426e-01 -6.446688480374586083e-01 4.662036756317752828e-01 0.000000000000000000e+00 0.000000000000000000e+00 0.000000000000000000e+00 -1.288073792010750982e-14 -4.081970419001187973e-15 0.000000000000000000e+00 -8.757936079228553586e-15 3.016843209550963455e-16 0.000000000000000000e+00 1.616824478938296852e-16 -3.368577778862954437e-15 -5.212251885939723352e-15 0.000000000000000000e+00 0.000000000000000000e+00 0.000000000000000000e+00 0.000000000000000000e+00 -8.534722944659133826e-16 -2.137754986129889939e-14 0.000000000000000000e+00 -2.289067271649241555e-15 -1.779982965296257149e-14 1.616824478938296852e-16 -3.368577778862954437e-15 -5.212251885939723352e-15 0.000000000000000000e+00 2.841555449020260394e-15 -1.362337456080516932e-14 0.000000000000000000e+00 -3.924339467076469141e-15 -1.676972528699411307e-14 0.000000000000000000e+00 9.624157355770313860e-16 -5.057288242417999196e-15 1.616824478938296852e-16 -3.368577778862954437e-15 -5.212251885939723352e-15 0.000000000000000000e+00 0.000000000000000000e+00 0.000000000000000000e+00 0.000000000000000000e+00 8.749550748562804111e-16 -9.294127297039072825e-15 0.000000000000000000e+00 -4.800661586492103486e-15 -1.188010686147755251e-14 1.616824478938296852e-16 -3.368577778862954437e-15 -5.212251885939723352e-15 0.000000000000000000e+00 0.000000000000000000e+00 0.000000000000000000e+00 0.000000000000000000e+00 -4.801800801899341882e-15 -1.078591371534393891e-14 0.000000000000000000e+00 3.454535703891489014e-15 -1.588671830268227522e-14 2.478342676610997830e-03 -5.733201443328786277e-03 3.344939983635122471e-03 2.244812707056289408e-02 2.624284866282926634e-02 -1.902007003224245874e-02 6.254110257662514050e-01 -6.247594759113866969e-01 6.022918442110395398e-01 2.448033813581937113e-01 6.579398175412072280e-01 3.315906715353268419e-01 0.000000000000000000e+00 0.000000000000000000e+00 0.000000000000000000e+00 -3.288987714120032604e-15 -1.304704767290240909e-15 0.000000000000000000e+00 -8.454253571725064278e-15 -1.639649145752816160e-15 0.000000000000000000e+00 2.273365701772603671e-15 -2.868057327556555701e-16 -1.760707944493887890e-15 0.000000000000000000e+00 0.000000000000000000e+00 0.000000000000000000e+00 0.000000000000000000e+00 -5.939728244298235159e-16 3.267126536100746267e-15 0.000000000000000000e+00 2.610174068541643324e-16 2.277888126443129977e-16 2.273365701772603671e-15 -2.868057327556555701e-16 -1.760707944493887890e-15 0.000000000000000000e+00 -1.232447823815076426e-15 -1.205925146841060285e-15 0.000000000000000000e+00 -3.632966038053517535e-15 -4.679373059136063587e-15 0.000000000000000000e+00 1.494598339665050027e-15 1.382182180907252273e-15 2.273365701772603671e-15 -2.868057327556555701e-16 -1.760707944493887890e-15 0.000000000000000000e+00 0.000000000000000000e+00 0.000000000000000000e+00 0.000000000000000000e+00 1.146799834049979001e-15 3.100938634508842781e-16 0.000000000000000000e+00 1.337233970687394374e-15 1.738768904616258466e-15 2.273365701772603671e-15 -2.868057327556555701e-16 -1.760707944493887890e-15 0.000000000000000000e+00 0.000000000000000000e+00 0.000000000000000000e+00 0.000000000000000000e+00 3.200412678480215865e-15 2.566232651492095896e-15 0.000000000000000000e+00 3.182175742823995772e-15 -9.040187862589897670e-15
1.500000000000000000e+02 0.000000000000000000e+00 0.000000000000000000e+00 0.000000000000000000e+00 0.000000000000000000e+00 -0.000000000000000000e+00 3.549675929674270692e-03 3.981195489744628405e-04 -3.946736785315124729e-03 1.454930583115738793e-02 -7.788557504598065361e-03 8.682222542974999888e-03 -2.194413408056758181e-03 -1.332175067693126304e-02 6.187009216203271690e-03 -8.848804494008259691e-03 8.374290145072123964e-03 -6.750721316498920280e-03 1.263592470162162515e-02 2.843367522187037824e-03 5.285170010601855824e-03 -2.134268584746696479e-02 9.737542959291856093e-03 2.134142356126196918e-02 4.654333221616409333e-03 -1.012617528232658860e-02 -1.017476566850450230e-02 6.419555525310514238e-03 -7.634016996497672985e-03 -7.912247844746644887e-03 2.279467276593805016e-03 -2.422871461769815580e-03 -1.638461755358753755e-03 3.519215117097549989e-03 -3.840174048220681806e-03 -2.277422000475076876e-03 -4.929672627470806827e-05 -5.120612201709609735e-05 2.057841280623641869e-04 -2.355688628311659158e-05 -1.005179899554025784e-05 8.032158003925647259e-05 -5.638865642027256729e-03 8.882625358636922139e-03 1.065755236390757837e-02 3.663166920182357733e-02 5.151098835246525204e-02 1.122802709180665800e-03 -1.832640332613647838e-01 1.018486524336669197e-01 2.548974210780580521e-02 6.675868823378061645e-01 -1.069236070750245959e+00 8.108838418375291512e-01 -4.716175110962167460e-01 6.227851405135380602e-01 -4.528404316841306287e-01 0.000000000000000000e+00 0.000000000000000000e+00 0.000000000000000000e+00 1.153384257632103516e-14 4.263162186342153781e-15 0.000000000000000000e+00 7.747020723277925398e-15 -1.252454188210432358e-16 0.000000000000000000e+00 1.829202090057784694e-16 3.510115150356598277e-15 4.900846337614206764e-15 0.000000000000000000e+00 0.000000000000000000e+00 0.000000000000000000e+00 0.000000000000000000e+00 7.785224174306612324e-16 2.059234659287947409e-14 0.000000000000000000e+00 2.059140591268572803e-15 1.760164356332181078e-14 1.829202090057784694e-16 3.510115150356598277e-15 4.900846337614206764e-15 0.000000000000000000e+00 -2.727242795708616403e-15 1.356027694756665923e-14 0.000000000000000000e+00 3.489416964312588938e-15 1.615457070540561571e-14 0.000000000000000000e+00 -7.657520788010318942e-16 5.199771909950008440e-15 1.829202090057784694e-16 3.510115150356598277e-15 4.900846337614206764e-15 0.000000000000000000e+00 0.000000000000000000e+00 0.000000000000000000e+00 0.000000000000000000e+00 -1.093585138987104939e-15 9.113528775190531825e-15 0.000000000000000000e+00 3.997282609852278366e-15 1.149843890996590557e-14 1.829202090057784694e-16 3.510115150356598277e-15 4.900846337614206764e-15 0.000000000000000000e+00 0.000000000000000000e+00 0.000000000000000000e+00 0.000000000000000000e+00 4.433510923138622311e-15 1.037791242816918894e-14 0.000000000000000000e+00 -3.456585501463418279e-15 1.558242732174357819e-14 -2.332128603667136396e-03 5.679307909572001677e-03 -2.830253272015309605e-03 -3.116176978374028683e-02 -2.815379688574944084e-02 2.697153844646428891e-02 -6.170598754758662707e-01 6.079463766812469583e-01 -5.950892600317717607e-01 -2.363272908162905306e-01 -6.340862537168714397e-01 -3.202434283958408012e-01 0.000000000000000000e+00 0.000000000000000000e+00 0.000000000000000000e+00 3.230386150247923917e-15 1.157399988431466284e-15 0.000000000000000000e+00 8.187532207327740329e-15 1.500345135638897562e-15 0.000000000000000000e+00 -1.963004229905464660e-15 5.101862080952887429e-16 1.638539383188012641e-15 0.000000000000000000e+00 0.000000000000000000e+00 0.000000000000000000e+00 0.000000000000000000e+00 7.243414068893176237e-16 -3.768557427872160037e-15 0.000000000000000000e+00 -3.015267328940823061e-16 -4.840965112805611167e-16 -1.963004229905464660e-15 5.101862080952887429e-16 1.638539383188012641e-15 0.000000000000000000e+00 1.576059421166366270e-15 1.144187649855576716e-15 0.000000000000000000e+00 3.709228451181061257e-15 4.105416362795572598e-15 0.000000000000000000e+00 -1.340185741630040612e-15 -1.533307468507697747e-15 -1.963004229905464660e-15 5.101862080952887429e-16 1.638539383188012641e-15 0.000000000000000000e+00 0.000000000000000000e+00 0.000000000000000000e+00 0.000000000000000000e+00 -1.226251190885502223e-15 -9.865233557636643843e-16 0.000000000000000000e+00 -1.341044668899606625e-15 -2.274373246851315856e-15 -1.963004229905464660e-15 5.101862080952887429e-16 1.638539383188012641e-15 0.000000000000000000e+00 0.000000000000000000e+00 0.000000000000000000e+00 0.000000000000000000e+00 -2.869668374433755882e-15 -2.771289208460450634e-15 0.000000000000000000e+00 -3.008367722808886798e-15 8.223731584739610948e-15
